<svg xmlns="http://www.w3.org/2000/svg" viewBox="0 0 804 874" width="804" height="874">
	<style>
		tspan { white-space:pre }
		.shp0 { fill: #f4fbff } 
	</style>
	<g id="Bg_shape">
		<path id="Shape 4 copy" class="shp0" d="M676.23 532.23C701.53 555.47 725.14 580.5 745.22 608.42C758.93 627.48 773.37 649.79 784.17 671.98C802.8 713.92 775.57 817.02 721.01 837.32C669.46 856.51 595.62 872.9 477.26 775.12C466.17 765.96 455.52 756.16 445.3 746.04C390.78 692.07 335.75 647.87 182.99 619.09C118.82 611.7 19.98 597.78 7.22 512.25C8.12 482.61 1.2 453.08 112.69 350.17C169.03 283.15 209.95 194.39 244.79 129.59C279.39 70.23 360.99 1.7 474.56 28.59C521.8 42.98 594.83 106.93 576.54 187.4C559.17 263.85 517.01 385.87 676.23 532.23Z" />
	</g>
</svg>