<svg xmlns="http://www.w3.org/2000/svg" viewBox="0 0 413 448" width="413" height="448">
	<style>
		tspan { white-space:pre }
		.shp0 { fill: #08d665 } 
	</style>
	<g id="About_us">
		<g id="Bg_shape">
			<path id="Shape 7" class="shp0" d="M309.33 445.08C323.29 440.32 337.64 437.13 351.27 431.32C365.44 425.29 378.62 417.16 389.36 406.03C390.11 405.24 391.34 406.41 390.58 407.19C380.1 418.02 367.3 426.03 353.51 431.98C339.56 438.01 324.5 443 309.58 445.99C308.98 446.11 308.74 445.28 309.33 445.08L309.33 445.08ZM393.55 357.52C385.03 362.9 376.6 368.46 367.97 373.66C365.8 374.97 362.93 376.54 360.47 375.02C358.18 373.6 357.99 370.62 358.28 368.2C359.93 354.17 370.61 340.47 383.17 334.5C383.97 334.12 384.69 335.3 383.88 335.69C372.51 341.26 364.21 351.76 360.64 363.86C360.22 365.31 359.82 366.78 359.63 368.27C359.52 369.1 359.44 369.92 359.52 370.75C359.67 372.23 361.23 374.08 362.71 374.41C365.62 375.04 370.76 370.61 373.05 369.21C379.76 365.1 386.47 360.99 393.17 356.89C393.58 356.64 393.95 357.27 393.55 357.52L393.55 357.52ZM389.05 380.86C379.69 380.08 372.59 387.04 363.68 388.2C354.58 389.37 351.06 380.74 350.15 373.15C347.81 353.47 354.2 332.85 366.67 317.54C373.32 309.39 381.99 302.51 391.98 298.99C392.86 298.68 393.2 300.03 392.36 300.37C375.05 307.31 362.42 322 355.89 339.28C351.99 349.59 343.58 391.64 365.39 386.61C373.18 384.82 380.76 378.36 389.12 380.26C389.45 380.33 389.4 380.89 389.05 380.86L389.05 380.86ZM382.11 387.65C373.83 396.76 361.15 406.91 347.98 403.12C334.67 399.29 332.36 383.08 333.04 371.27C334.75 341.23 355.8 318.09 372.48 294.89C382.32 281.2 390.82 266.54 393.89 249.76C394.09 248.68 395.71 249.1 395.53 250.17C390.92 276.74 372.49 296.94 357.27 318.08C348.97 329.61 341.41 342.06 337.37 355.78C335.38 362.54 334.31 369.56 334.51 376.61C334.71 383.57 335.95 391.51 340.71 396.93C345.93 402.88 354.49 403.77 361.66 401.27C369.62 398.5 375.38 392.39 381.81 387.27C382.03 387.09 382.29 387.45 382.11 387.65L382.11 387.65ZM384.72 403.38C374.53 405.76 364.31 408.02 354.09 410.25C344.74 412.28 335.28 415.03 325.8 416.27C319.12 417.14 314.38 414.42 311.96 408.06C309.08 400.53 308.53 391.86 309.25 383.9C310.79 366.98 318.3 351.16 326.76 336.67C335.54 321.61 345.04 306.12 357.46 293.77C364.52 286.75 372.37 280.31 378.07 272.05C384.16 263.25 387.31 253.03 385.61 242.34C385.49 241.54 386.64 241.17 386.86 242C390.82 256.88 381.71 271.69 371.83 282.02C366.08 288.03 359.68 293.4 354.1 299.58C348.01 306.34 342.95 313.94 337.99 321.54C328.6 335.92 319.32 350.79 314.11 367.28C311.55 375.37 310.03 383.85 310.39 392.36C310.7 400.01 311.98 414.31 321.86 415.16C326.67 415.57 331.92 413.77 336.57 412.78C341.89 411.64 347.22 410.52 352.54 409.39C363.2 407.12 373.86 404.89 384.55 402.79C384.94 402.71 385.11 403.29 384.72 403.38L384.72 403.38ZM302.8 429.99C320.9 425.92 339.07 422.56 356.98 417.59C375 412.59 392.44 406.22 409.98 399.79C411.05 399.4 411.47 401.06 410.45 401.48C393.09 408.66 374.89 414.19 356.79 419.16C339.19 423.98 321.06 428.58 302.89 430.61C302.54 430.65 302.46 430.07 302.8 429.99L302.8 429.99ZM378.94 232.42C374 245.59 365.01 256.48 356.3 267.32C346.93 278.98 338.84 291.13 332.28 304.6C319.25 331.36 311.04 360.32 296.29 386.26C292.15 393.53 286.86 400.53 284.91 408.81C283.25 415.84 284.52 425.23 291.46 428.99C292.46 429.54 291.62 431.05 290.61 430.54C278.96 424.54 282.03 408.29 286.9 398.95C290.52 392.01 294.98 385.54 298.61 378.59C302.19 371.74 305.39 364.7 308.42 357.59C320.36 329.58 329.66 299.9 348.25 275.34C358.9 261.28 371.19 248.56 378.36 232.19C378.5 231.87 379.07 232.09 378.94 232.42L378.94 232.42ZM271.22 427.81C265.19 424.61 258.79 418.83 258.54 411.49C258.27 403.5 265.49 399.59 270.79 395.09C285.13 382.89 291.26 362.85 298.2 346.01C302.39 335.87 306.53 325.72 310.71 315.57C314.79 305.64 318.63 295.55 323.24 285.85C327.41 277.11 332.78 269.45 339.33 262.33C345.88 255.2 352.7 248.36 358.96 240.96C373.68 223.55 385.98 204.53 396.82 184.5C397.33 183.54 398.78 184.34 398.29 185.31C389.89 201.9 379.6 217.66 368.18 232.33C362.46 239.69 356.39 246.78 350 253.57C343.4 260.57 336.35 267.28 330.99 275.33C325.6 283.41 321.98 292.5 318.27 301.42C314.22 311.16 310.14 320.89 306.08 330.62C301.99 340.41 297.91 350.2 293.81 359.98C290.48 367.94 287.03 375.91 282.38 383.2C280.08 386.81 277.48 390.25 274.47 393.29C271.34 396.45 267.56 398.76 264.32 401.78C254.72 410.71 262.53 421.76 271.59 427.14C272.01 427.39 271.66 428.04 271.22 427.81L271.22 427.81ZM388.35 411.26C379.67 416.41 370.03 420.55 360.77 424.54C351.3 428.63 341.31 432.44 331.14 434.38C330.1 434.58 329.63 433.04 330.69 432.76C340.64 430.15 350.27 427.12 359.8 423.22C369.35 419.32 378.46 414.31 388.05 410.56C388.45 410.4 388.71 411.04 388.35 411.26L388.35 411.26ZM389.54 181.9C382.1 189.52 373.68 197.6 362.87 199.78C353.55 201.66 344.65 198.62 338.95 190.95C335.67 186.54 333.31 181.53 329.92 177.2C326.47 172.79 322.32 168.96 317.84 165.61C309.25 159.19 299.52 154.55 289.99 149.72C253.54 131.24 218.93 107.53 192.34 76.17C177.33 58.46 164.91 38.31 156.99 16.44C156.59 15.34 158.32 14.88 158.73 15.95C173.55 54.24 199.47 86.04 231.61 111.23C247.14 123.41 263.87 134.01 281.21 143.39C298.05 152.5 317.16 159.73 329.79 174.78C333.48 179.18 336.04 184.25 339.27 188.96C343.18 194.68 348.64 198.47 355.66 198.99C369.1 199.99 380.05 190.11 389.1 181.48C389.38 181.21 389.81 181.62 389.54 181.9L389.54 181.9ZM388.38 163.68C383.45 171.48 377.94 180.49 368.81 183.77C365.13 185.08 360.96 185.36 357.26 184C352.98 182.42 350.29 178.8 347.73 175.21C335.33 157.81 317.98 145.67 299.79 134.95C279.39 122.95 258.7 111.4 238.16 99.64C220.75 89.67 203.19 79.08 191.43 62.36C178.36 43.79 172.41 21.01 157.61 3.56C157.09 2.95 157.94 2.03 158.47 2.65C170.91 16.94 177.13 35.18 186.24 51.52C191.07 60.18 196.85 68.09 204.13 74.86C211.62 81.82 220.17 87.51 228.92 92.75C248.23 104.31 267.97 115.19 287.5 126.37C304.27 135.96 321.41 145.54 335.44 159.01C339.24 162.65 342.78 166.55 345.98 170.72C349.75 175.62 352.87 181.91 359.42 183.36C372.54 186.27 381.66 172.64 387.81 163.37C388.04 163.03 388.6 163.33 388.38 163.68L388.38 163.68ZM383.12 163.02C377.91 161.97 372.67 163.57 367.41 163.14C363.94 162.86 360.55 162.06 357.3 160.83C350.34 158.21 344.2 153.81 338.58 149.01C325.07 137.48 314 123.36 299.27 113.22C268.96 92.35 230.95 85.61 203.21 60.57C189.67 48.35 178.33 31.79 176.38 13.25C176.32 12.68 177.26 12.54 177.37 13.11C180.79 30.26 188.85 44.87 201.43 57.04C213.92 69.13 229.01 77.58 244.73 84.7C261.67 92.37 279.23 98.94 295.06 108.85C309.73 118.03 320.95 130.7 333.38 142.52C339.79 148.62 346.67 154.54 354.72 158.36C358.83 160.32 363.26 161.67 367.81 162.06C372.95 162.5 378.17 161.23 383.21 162.66C383.45 162.72 383.36 163.07 383.12 163.02L383.12 163.02ZM384.14 149.87C369.02 157.76 354 144.69 345 133.58C339.34 126.59 334.25 119.04 327.57 112.94C320.66 106.63 312.16 102.62 303.4 99.54C295.27 96.68 286.92 94.49 278.84 91.49C271.06 88.6 263.48 85.15 256.18 81.19C241.33 73.15 227.65 63.04 215.42 51.4C208.4 44.71 201.88 37.51 195.9 29.88C192.55 25.6 184.48 16.1 190.72 10.93C191.39 10.38 192.38 11.28 191.72 11.88C185.46 17.58 197.47 29.65 200.93 33.83C205.97 39.91 211.37 45.69 217.1 51.12C228.77 62.19 241.84 71.81 255.94 79.55C263.12 83.5 270.57 86.96 278.24 89.87C285.5 92.61 292.97 94.7 300.33 97.13C307.79 99.59 315.2 102.46 321.78 106.82C328.05 110.96 333.09 116.43 337.75 122.28C343.58 129.59 348.9 137.59 356.26 143.49C363.93 149.63 374.32 153.85 383.82 149.35C384.17 149.19 384.49 149.69 384.14 149.87L384.14 149.87ZM375.51 123.3C362.78 128.92 350.63 119.95 341.56 111.74C335.88 106.59 330.31 101.48 323.82 97.33C318.34 93.82 312.52 90.87 306.55 88.28C282.06 77.66 254.8 72.91 232.82 56.99C221.56 48.83 212 37.51 210.57 23.22C210.49 22.42 211.74 22.41 211.83 23.21C214.96 50.44 244.74 64.44 267.41 72.71C290.1 80.99 314.37 86.99 333.38 102.71C344.76 112.12 358.45 129.68 375.3 122.79C375.58 122.67 375.8 123.17 375.51 123.3L375.51 123.3ZM372.88 110.1C349.12 98.78 325.44 87.3 301.74 75.85C295.3 72.73 283.84 68.38 285.52 59.15C286.34 54.65 290.29 51.68 293.69 49.06C298.09 45.68 302.76 42.67 307.66 40.08C318.31 34.46 330 30.78 342 29.66C342.98 29.57 342.98 31.07 342.02 31.18C331.88 32.36 322.01 34.97 312.73 39.28C308.22 41.38 303.87 43.82 299.73 46.59C295.69 49.29 290.12 52.51 287.85 57C282.43 67.74 300.16 73.46 306.95 76.76C317.29 81.77 327.62 86.78 337.95 91.8C349.79 97.54 361.61 103.32 373.41 109.12C374.05 109.44 373.52 110.4 372.88 110.1L372.88 110.1ZM404.82 92.32C382.96 92.84 360.54 88.52 339.81 81.82C334.72 80.18 329.64 78.41 324.71 76.34C321.72 75.09 318.47 73.32 317 70.27C313.45 62.91 323.83 56.37 328.75 52.87C337.29 46.78 347.58 41.85 358.06 40.47C358.73 40.38 358.86 41.46 358.23 41.63C347.53 44.39 337.65 48.15 328.66 54.73C324.75 57.59 315.96 63.21 318 69.1C319.82 74.33 327.86 76.19 332.35 77.84C343.73 82.01 355.44 85.25 367.34 87.52C379.77 89.89 392.21 90.88 404.81 91.61C405.27 91.63 405.29 92.31 404.82 92.32L404.82 92.32ZM387.05 71.23C379.49 74.79 371.42 77.08 363.08 77.79C358.3 78.2 348.01 79.71 345.82 73.67C343.6 67.56 350.09 59.91 353.31 55.42C358.17 48.65 363.83 42.47 370.23 37.13C370.9 36.58 371.9 37.51 371.22 38.08C366.31 42.28 361.76 46.84 357.7 51.88C355.45 54.67 353.36 57.59 351.42 60.6C349.55 63.51 347.41 66.61 346.89 70.1C345.6 78.81 359.32 77.06 364.74 76.55C372.35 75.85 379.73 73.77 386.69 70.62C387.1 70.44 387.47 71.04 387.05 71.23L387.05 71.23ZM386.91 63.25C380.48 64.29 369.96 67.44 366.89 59.23C365.58 55.7 366.94 52.7 368.97 49.8C371.71 45.9 374.75 42.02 378.52 39.07C378.94 38.74 379.41 39.41 379.09 39.78C376.73 42.52 374.18 45.06 371.96 47.92C369.7 50.84 366.75 54.23 367.88 58.21C370.19 66.29 380.74 63.39 386.83 62.7C387.14 62.66 387.22 63.2 386.91 63.25L386.91 63.25ZM58.14 177.92C65.36 180.58 73.3 182.32 79.72 186.77C86.25 191.3 89.61 198.78 88.03 206.72C87 211.9 86.08 216.5 87.65 221.73C88.33 223.98 89.38 226.13 90.75 228.04C92.38 230.31 94.53 231.71 96.52 233.6C100.94 237.78 102.61 245.13 100.9 250.91C100.13 253.5 98.58 255.88 96.12 257.15C92.33 259.1 88.16 257.6 84.15 257.91C73.57 258.74 74.96 273.3 78.5 279.96C82.81 288.07 91.03 293.35 94.71 301.92C98.04 309.67 96.98 318.35 93.46 325.84C88.99 335.36 81.17 342.37 71.98 347.21C61.17 352.92 49.26 356.29 38.95 362.99C38.05 363.58 37.18 362.13 38.09 361.55C54.8 350.79 76.99 348.26 88.87 330.86C94.12 323.18 97.14 313.31 94.01 304.2C90.95 295.28 82.85 289.76 77.98 281.99C74.65 276.67 73.18 269.22 75.38 263.2C76.27 260.75 77.9 258.55 80.29 257.4C84.04 255.59 88.06 256.99 92 256.71C101.32 256.05 101.45 244.02 97.93 237.73C96.02 234.31 92.47 232.53 90.1 229.48C87.64 226.33 86.1 222.51 85.54 218.55C84.86 213.61 86.4 209.55 86.94 204.74C87.57 199.08 85.51 193.55 81.34 189.69C74.92 183.74 65.74 181.88 57.94 178.43C57.66 178.31 57.84 177.82 58.14 177.92L58.14 177.92ZM71.45 363.28C83.57 356.14 95.64 348.84 105.22 338.37C110.01 333.14 114.07 327.22 116.85 320.68C119.74 313.87 122.39 304.76 120.02 297.45C117.68 290.24 108.87 289.22 105.77 282.59C103.23 277.16 105.18 270.71 108.11 265.86C111.55 260.15 117.07 256.33 121.51 251.49C127.39 245.07 129.98 236.85 125.31 228.9C121.71 222.79 114.48 220.66 111.66 213.9C108.98 207.49 111.51 200.76 111.55 194.1C111.59 187.27 110.28 179.57 104.73 174.97C98.38 169.73 89.83 171.8 82.31 170.57C63.14 167.43 52.24 148.64 43.9 132.98C38.2 122.28 33.04 111.25 26.59 100.97C20.44 91.16 12.9 81.82 2.41 76.46C1.41 75.94 2.25 74.41 3.25 74.92C22.38 84.7 32.1 106.32 41.46 124.48C50.2 141.46 60.75 164.44 81.56 168.61C88.43 169.99 95.88 168.27 102.38 171.39C107.81 174 110.97 179.28 112.27 185C113.77 191.59 113.03 198.24 112.07 204.84C111.4 209.45 112.56 213.98 115.59 217.57C117.93 220.33 121.31 221.79 123.76 224.44C128 229.01 130.32 235.55 128.82 241.73C127.19 248.41 121.96 253.21 117.11 257.71C111.42 262.97 105.25 269.75 105.93 278.16C106.64 286.98 116.24 287.79 120.07 294.43C123.74 300.77 121.93 309.46 119.89 316.05C117.64 323.3 113.83 329.96 109.06 335.85C99.29 347.9 85.71 357.21 71.81 363.89C71.41 364.08 71.05 363.52 71.45 363.28L71.45 363.28ZM116.01 428.22C110.91 428.52 105.31 426.77 100.44 425.45C95.23 424.03 90.13 422.33 85.03 420.58C74.57 416.99 64.24 412.91 53.52 410.14C52.43 409.85 52.85 408.16 53.95 408.44C64.35 411.11 74.35 415 84.39 418.78C89.57 420.74 94.86 422.56 100.19 424.05C105.42 425.51 110.92 426.01 116.09 427.52C116.48 427.63 116.42 428.19 116.01 428.22L116.01 428.22ZM148.39 22.77C152.77 41 159.88 58.2 170.04 73.98C179.95 89.4 192.22 103.21 205.78 115.51C236.55 143.41 273.65 162.67 307.99 185.58C315.6 190.66 323.96 195.66 330.5 202.13C336 207.57 338.99 214.74 337.54 222.5C336.03 230.55 330.69 237.36 325.46 243.4C319.58 250.2 313.61 256.69 308.66 264.24C289.04 294.18 280.69 329.97 260.8 359.75C240.64 389.94 208.68 407.86 174.86 418.89C170.7 420.25 166.5 421.51 162.29 422.7C161.21 423.01 160.73 421.32 161.82 421.01C196.19 411.27 230.41 395.91 253.15 367.28C275.18 339.55 283.83 304.14 300.95 273.61C305.01 266.36 309.59 259.4 314.86 252.98C320.49 246.11 327.11 240.03 331.82 232.43C336.75 224.46 338.45 215.01 332.72 206.92C330.14 203.28 326.6 200.44 323.04 197.81C318.67 194.58 314.2 191.48 309.7 188.44C276.47 165.97 240.53 147.2 210 120.93C183.77 98.37 161.08 69.81 150.92 36.29C149.59 31.9 148.52 27.48 147.71 22.96C147.63 22.52 148.28 22.32 148.39 22.77L148.39 22.77ZM138.72 30.99C128.81 71.29 160.73 107.61 187.81 133.01C216.22 159.66 249.05 181.65 284.83 197.12C292.09 200.27 300.81 202.72 305.72 209.42C310.24 215.59 309.83 223.59 307 230.38C303.58 238.57 296.97 244.07 289.83 248.97C282.05 254.3 274.58 259.48 269.28 267.45C259.94 281.48 256.91 298.75 252.69 314.77C248.4 331.03 242.47 346.35 231.36 359.25C207.54 386.9 170.95 396.67 135.61 395.43C129.83 395.23 124.06 394.78 118.31 394.17C114.85 393.8 111.44 393.47 108.24 392C103.26 389.73 99.51 385.35 97.8 380.17C96.1 375.01 96.49 369.19 99.05 364.38C102.65 357.59 109.97 354.8 116.37 351.28C131.71 342.85 147.98 329.04 149.33 310.2C149.65 305.73 148.9 301.2 147.02 297.12C145.09 292.94 142.07 289.38 140.14 285.19C137.37 279.19 137.54 272.68 139.25 266.4C141.05 259.8 144.19 253.64 147.04 247.44C149.84 241.33 152.96 234.67 152.85 227.79C152.7 219.21 146.5 214.98 140.32 210.19C134.67 205.82 131.78 200.06 130.73 193.06C129.61 185.68 130.18 178.2 129.86 170.78C129.56 163.72 128.47 155.8 122.63 151.05C115.28 145.09 104.69 148 96.11 148.33C89.99 148.57 84.01 147.54 78.71 144.35C68.75 138.39 62.96 127.32 58.17 117.16C52.51 105.17 47.92 92.53 40.67 81.36C37.34 76.22 33.4 71.52 28.51 67.81C27.43 66.99 28.89 65.47 29.96 66.28C50.49 81.87 54.23 110.43 68.11 130.84C71.26 135.47 75.1 139.8 79.97 142.65C86.3 146.35 93.26 146.53 100.4 145.93C107.99 145.3 116.51 144.06 123.13 148.78C128.22 152.42 130.53 158.31 131.42 164.31C133.39 177.7 128.31 196.17 139.34 206.59C144.71 211.66 151.59 214.59 154.07 222.11C155.91 227.69 154.71 233.7 152.82 239.09C148.49 251.46 138.78 264 140.22 277.7C141.15 286.5 148.54 292.64 150.68 301.07C152.5 308.26 151.26 315.74 148.34 322.47C145.03 330.12 139.6 336.89 133.4 342.4C126.51 348.53 118.36 352.66 110.31 357.02C104.13 360.37 99.42 365.08 98.93 372.46C98.53 378.57 101.21 384.77 106.21 388.39C109.47 390.75 113.12 391.49 117.05 391.93C122.39 392.53 127.74 392.98 133.11 393.24C144.53 393.78 156.03 393.4 167.32 391.53C183.64 388.84 199.44 382.67 212.98 373.12C227.28 363.02 238.51 349.14 244.91 332.81C251.03 317.19 253.53 300.46 259.08 284.66C261.56 277.61 264.67 270.72 269.09 264.65C274.18 257.65 280.98 252.87 288.05 248.07C296.11 242.6 303.67 236.4 306.49 226.67C309.37 216.73 304.99 208.48 296.03 203.85C287.96 199.68 279.27 196.65 271.09 192.67C262.51 188.49 254.12 183.94 245.94 179.04C229.77 169.35 214.42 158.3 200.05 146.11C185.73 133.95 171.84 120.76 160.24 105.94C149.02 91.62 139.4 74.86 136.78 56.6C135.54 47.98 136.01 39.29 138.29 30.88C138.37 30.61 138.79 30.71 138.72 30.99L138.72 30.99ZM123.02 28.49C116.56 63.41 136.76 98.33 156.6 125.43C175.49 151.24 198.82 173.84 225.56 191.41C231.9 195.58 238.44 199.46 245.14 203.03C250.51 205.89 254.96 209.49 257.58 215.14C259.98 220.33 260.51 226.3 259.04 231.82C257.21 238.62 252 243.6 248.46 249.5C239.17 264.97 236.84 282.6 233.85 300.07C231.23 315.35 227.34 330.11 218.4 342.99C203.93 363.85 179.16 378.41 153.33 376.79C147.57 376.43 140.96 375.72 136.27 372.02C131.82 368.5 131.01 362.82 135.4 358.86C137.62 356.86 140.48 355.48 143.02 353.95C146.01 352.14 148.98 350.31 151.88 348.36C157.54 344.56 163.01 340.32 167.44 335.09C172.44 329.18 175.74 322.02 176.33 314.25C176.97 305.81 174.73 297.51 172.72 289.4C170.84 281.78 169.05 274.04 169.49 266.14C169.9 258.69 171.88 251.43 173.94 244.29C177.61 231.52 183.85 215.31 175.55 203.03C171.59 197.18 164.93 193.96 160.77 188.28C156.18 182 156.6 174.11 156.27 166.73C155.96 159.89 154.38 153.48 150.46 147.81C147.07 142.89 142.42 138.97 137.57 135.57C127.64 128.6 116.5 123.43 107.18 115.59C82.42 94.77 82.7 58.65 88.81 29.66C90.72 20.6 93.17 11.67 95.63 2.74C95.98 1.45 98 1.95 97.65 3.25C88.96 34.8 78.99 72.84 98.4 102.64C105.62 113.74 116.99 120.38 128.07 127.05C137.32 132.62 147.15 138.58 153.04 147.94C156.21 152.98 157.8 158.67 158.24 164.58C158.83 172.7 157.74 181.43 163.3 188.14C167.52 193.23 173.59 196.41 177.33 201.96C180.75 207.03 181.91 213.12 181.62 219.15C180.95 233.13 174.6 246.15 172.29 259.85C170.87 268.27 171.77 276.38 173.69 284.64C175.47 292.35 177.81 300 178.36 307.93C179.29 321.45 173.43 333.08 163.52 341.98C158.68 346.32 153.26 349.98 147.75 353.4C142.7 356.54 129.21 362.15 136.44 369.53C140.94 374.12 148.9 374.68 154.95 374.9C161.48 375.13 168.01 374.32 174.3 372.59C187.02 369.11 198.65 362.03 207.92 352.7C218.4 342.15 225.38 329.05 229.05 314.69C233.27 298.15 234.03 280.84 239.56 264.62C242.14 257.03 245.8 249.83 250.46 243.31C254.68 237.4 258.41 232.26 258.13 224.62C257.9 218.25 254.95 212.15 250.04 208.08C247.3 205.8 243.96 204.36 240.85 202.64C237.39 200.72 233.98 198.71 230.61 196.63C204.76 180.63 181.87 159.99 162.89 136.27C153.26 124.23 144.49 111.38 137.12 97.83C129.33 83.49 123.02 67.86 121.48 51.49C120.75 43.79 121.24 35.99 122.76 28.42C122.79 28.25 123.05 28.32 123.02 28.49L123.02 28.49ZM192.8 312.43C194.86 290.38 204.2 269.44 204.64 247.2C204.75 241.75 204.25 236.29 202.9 231.01C201.7 226.35 199.6 221.86 199.23 217.02C198.96 213.52 199.88 209.7 202.93 207.61C205.49 205.85 208.97 205.69 211.55 207.52C214.17 209.37 215.34 212.91 215.05 216.02C214.84 218.28 214.06 219.64 214.56 222.04C214.94 223.85 215.56 225.67 216.79 227.08C219.1 229.72 224.16 229.61 224.98 233.47C225.66 236.67 224 240.54 222.88 243.42C221.14 247.92 218.76 252.14 216.49 256.39C213.91 261.2 211.5 266.1 210.14 271.41C208.79 276.72 208.31 282.19 207.98 287.64C207.34 298.13 207.87 310.85 202.32 320.23C200.95 322.55 198.25 324.39 195.76 322.46C192.99 320.3 192.6 315.62 192.8 312.43C192.84 311.63 194.1 311.6 194.05 312.42C193.88 315.33 194.8 324.18 199.56 321.39C201.62 320.18 202.51 316.97 203.22 314.86C203.95 312.72 204.48 310.51 204.9 308.29C206.61 299.19 206.29 289.86 207.28 280.68C208.18 272.4 210.57 264.96 214.42 257.6C216.4 253.82 218.53 250.12 220.32 246.25C221.87 242.87 224.07 238.36 223.83 234.51C223.6 230.84 218.89 230.72 216.59 228.66C214.88 227.13 213.94 224.97 213.43 222.78C213.17 221.67 212.76 220.06 212.92 218.93C213.28 216.53 214.22 214.98 213.43 212.42C211.63 206.57 204.11 205.82 201.33 211.39C199.13 215.81 201.2 221.33 202.6 225.68C205.27 233.94 206.31 242.24 205.74 250.92C204.34 271.84 196 291.56 194.05 312.42C193.98 313.21 192.72 313.24 192.8 312.43ZM108.89 35.8C108.83 40.34 108.85 44.89 109.07 49.43C109.17 51.7 109.34 53.97 109.54 56.23C109.66 57.69 110.03 59.32 109.77 60.78C109.2 63.96 105.59 65.59 102.71 64.36C101.1 63.66 100.24 62.29 99.83 60.64C98.91 56.86 98.74 52.71 98.62 48.85C98.4 41.42 98.66 32.47 101.58 25.53C101.88 24.81 102.82 25.34 102.74 25.98C101.96 32.1 100.4 37.94 100.22 44.17C100.14 47.28 100.23 50.39 100.49 53.49C100.7 55.99 100.47 59.64 101.91 61.77C103 63.38 105.37 63.7 106.94 62.61C109.38 60.94 108.12 56.84 107.99 54.4C107.64 48.2 107.69 42 108.2 35.81C108.24 35.38 108.89 35.35 108.89 35.8L108.89 35.8ZM63.17 30.78C64.59 38.23 65.15 45.76 66.91 53.18C68.64 60.51 70.91 67.72 73.76 74.69C75.29 78.42 77.02 82.04 78.85 85.63C79.62 87.14 79.54 88.08 77.98 89.12C74.36 91.53 69.85 87.14 67.93 84.47C67.25 83.54 68.79 82.62 69.46 83.55C70.61 85.15 74.09 89.1 76.47 87.91C78.51 86.89 74.6 81 73.93 79.5C71.76 74.64 69.85 69.65 68.27 64.56C66.59 59.14 65.26 53.61 64.3 48.02C63.35 42.47 62.33 36.49 62.66 30.85C62.67 30.58 63.11 30.47 63.17 30.78L63.17 30.78Z" />
		</g>
	</g>
</svg>