<svg xmlns="http://www.w3.org/2000/svg" viewBox="0 0 675 657" width="675" height="657">
	<style>
		tspan { white-space:pre }
		.shp0 { opacity: 0.612;fill: #d6ffe9 } 
	</style>
	<g id="Latest Project">
		<g id="Bg_shape">
			<path id="Shape 4" class="shp0" d="M128.86 282.97C105.42 268.37 83.03 252.11 63.02 233.05C49.35 220.03 34.62 204.56 22.79 188.63C1.82 158.28 7.99 72.78 48.07 48.62C85.94 25.79 141.83 1.86 249.9 61.48C260.03 67.06 269.9 73.22 279.48 79.69C330.58 114.21 380.64 140.93 505.61 140.93C557.41 137.21 637.57 133.5 660.39 199.16C664.09 222.71 673.95 245.01 601.19 342.89C566.66 404.23 547.54 480.43 529.66 536.8C511.16 588.84 456.9 655.13 363.17 650.79C323.7 646.46 256.49 606.81 258.96 540.52C261.3 477.55 276.44 374.87 128.86 282.97Z" />
		</g>
	</g>
</svg>