<svg xmlns="http://www.w3.org/2000/svg" viewBox="0 0 20 19" width="20" height="19">
	<style>
		tspan { white-space:pre }
		.shp0 { opacity: 0.502;fill: #ffffff } 
	</style>
	<g id="Banner_section">
		<g id="topbar">
			<g id="donate_now">
				<path id="icon" class="shp0" d="M17.11 15.33L17.11 16.22C17.11 17.2 16.3 18 15.32 18L2.79 18C1.8 18 1 17.2 1 16.22L1 3.78C1 2.8 1.8 2 2.79 2L15.32 2C16.3 2 17.11 2.8 17.11 3.78L17.11 4.67L9.05 4.67C8.06 4.67 7.26 5.47 7.26 6.44L7.26 13.55C7.26 14.53 8.06 15.33 9.05 15.33L17.11 15.33ZM9.05 13.55L18 13.55L18 6.44L9.05 6.44L9.05 13.55ZM12.63 11.33C11.89 11.33 11.29 10.74 11.29 10C11.29 9.26 11.89 8.67 12.63 8.67C13.37 8.67 13.97 9.26 13.97 10C13.97 10.74 13.37 11.33 12.63 11.33Z" />
			</g>
		</g>
	</g>
</svg>