<svg xmlns="http://www.w3.org/2000/svg" viewBox="0 0 31 31" width="31" height="31">
	<style>
		tspan { white-space:pre }
		.shp0 { fill: #08d665 } 
	</style>
	<g id="Banner_section">
		<g id="navigation">
			<g id="hamburger">
				<path id="Ellipse 1 copy 4" class="shp0" d="M5 2C6.66 2 8 3.34 8 5C8 6.66 6.66 8 5 8C3.34 8 2 6.66 2 5C2 3.34 3.34 2 5 2ZM16 2C17.66 2 19 3.34 19 5C19 6.66 17.66 8 16 8C14.34 8 13 6.66 13 5C13 3.34 14.34 2 16 2ZM27 2C28.66 2 30 3.34 30 5C30 6.66 28.66 8 27 8C25.34 8 24 6.66 24 5C24 3.34 25.34 2 27 2ZM5 13C6.66 13 8 14.34 8 16C8 17.66 6.66 19 5 19C3.34 19 2 17.66 2 16C2 14.34 3.34 13 5 13ZM16 13C17.66 13 19 14.34 19 16C19 17.66 17.66 19 16 19C14.34 19 13 17.66 13 16C13 14.34 14.34 13 16 13ZM27 13C28.66 13 30 14.34 30 16C30 17.66 28.66 19 27 19C25.34 19 24 17.66 24 16C24 14.34 25.34 13 27 13ZM5 24C6.66 24 8 25.34 8 27C8 28.66 6.66 30 5 30C3.34 30 2 28.66 2 27C2 25.34 3.34 24 5 24ZM16 24C17.66 24 19 25.34 19 27C19 28.66 17.66 30 16 30C14.34 30 13 28.66 13 27C13 25.34 14.34 24 16 24ZM27 24C28.66 24 30 25.34 30 27C30 28.66 28.66 30 27 30C25.34 30 24 28.66 24 27C24 25.34 25.34 24 27 24Z" />
			</g>
		</g>
	</g>
</svg>