<svg xmlns="http://www.w3.org/2000/svg" viewBox="0 0 38 34" width="38" height="34">
	<style>
		tspan { white-space:pre }
		.shp0 { fill: #ffffff } 
	</style>
	<g id="Service">
		<g id="Service_list">
			<g id="01 copy">
				<g id="icon">
					<path id="Shape 9" class="shp0" d="M14.25 2L11.05 5.44L5.5 5.44C3.57 5.44 2 6.99 2 8.89L2 29.55C2 31.45 3.57 33 5.5 33L33.5 33C35.42 33 37 31.45 37 29.55L37 8.89C37 6.99 35.42 5.44 33.5 5.44L27.95 5.44L24.75 2L14.25 2ZM19.5 27.83C14.67 27.83 10.75 23.98 10.75 19.22C10.75 14.47 14.67 10.61 19.5 10.61C24.33 10.61 28.25 14.47 28.25 19.22C28.25 23.98 24.33 27.83 19.5 27.83ZM19.5 26.11L21.69 21.37L26.5 19.22L21.69 17.07L19.5 12.33L17.31 17.07L12.5 19.22L17.31 21.37L19.5 26.11Z" />
				</g>
			</g>
		</g>
	</g>
</svg>